HIERARCHY
ROOT Hips
{
    OFFSET   0.000000   0.000000   0.000000
    CHANNELS 6 Xposition Yposition Zposition Zrotation Xrotation Yrotation
    JOINT Chest
    {
        OFFSET   0.000000   8.007230   0.000000
        CHANNELS 3 Zrotation Xrotation Yrotation
        JOINT Chest2
        {
            OFFSET   0.000000  22.077100   0.000000
            CHANNELS 3 Zrotation Xrotation Yrotation
            JOINT Neck
            {
                OFFSET   0.000000  23.254800   0.000000
                CHANNELS 3 Zrotation Xrotation Yrotation
                JOINT Head
                {
                    OFFSET   0.000010  14.370000   1.956600
                    CHANNELS 3 Zrotation Xrotation Yrotation
                    End Site
                    {
                        OFFSET   0.000000  19.566000   0.000000
                    }
                }
            }
            JOINT LeftCollar
            {
                OFFSET   3.911900  19.017000  -0.467062
                CHANNELS 3 Zrotation Xrotation Yrotation
                JOINT LeftShoulder
                {
                    OFFSET  10.383700   0.000000   0.000000
                    CHANNELS 3 Zrotation Xrotation Yrotation
                    JOINT LeftElbow
                    {
                        OFFSET  26.662100   0.001193   0.000835
                        CHANNELS 3 Zrotation Xrotation Yrotation
                        JOINT LeftWrist
                        {
                            OFFSET  28.869000  -0.000058  -0.000075
                            CHANNELS 3 Zrotation Xrotation Yrotation
                            JOINT LeftFinger0
                            {
                                OFFSET   2.044660  -2.323460   3.252850
                                CHANNELS 3 Zrotation Xrotation Yrotation
                                JOINT LeftFinger01
                                {
                                    OFFSET   3.088130   0.000000   0.000000
                                    CHANNELS 3 Zrotation Xrotation Yrotation
                                    JOINT LeftFinger02
                                    {
                                        OFFSET   2.639450   0.000000   0.000000
                                        CHANNELS 3 Zrotation Xrotation Yrotation
                                        End Site
                                        {
                                            OFFSET   2.582190   0.000000   0.000000
                                        }
                                    }
                                }
                            }
                            JOINT LeftFinger1
                            {
                                OFFSET   8.364480   0.000000   3.252850
                                CHANNELS 3 Zrotation Xrotation Yrotation
                                JOINT LeftFinger11
                                {
                                    OFFSET   4.646920   0.000000   0.000000
                                    CHANNELS 3 Zrotation Xrotation Yrotation
                                    JOINT LeftFinger12
                                    {
                                        OFFSET   2.323460   0.000000   0.000000
                                        CHANNELS 3 Zrotation Xrotation Yrotation
                                        End Site
                                        {
                                            OFFSET   2.273050   0.000000   0.000000
                                        }
                                    }
                                }
                            }
                            JOINT LeftFinger2
                            {
                                OFFSET   8.364490   0.000016   1.078090
                                CHANNELS 3 Zrotation Xrotation Yrotation
                                JOINT LeftFinger21
                                {
                                    OFFSET   5.111620   0.000000   0.000000
                                    CHANNELS 3 Zrotation Xrotation Yrotation
                                    JOINT LeftFinger22
                                    {
                                        OFFSET   2.788150   0.000012   0.000000
                                        CHANNELS 3 Zrotation Xrotation Yrotation
                                        End Site
                                        {
                                            OFFSET   2.727660   0.000000   0.000000
                                        }
                                    }
                                }
                            }
                            JOINT LeftFinger3
                            {
                                OFFSET   7.899780   0.000014  -1.078090
                                CHANNELS 3 Zrotation Xrotation Yrotation
                                JOINT LeftFinger31
                                {
                                    OFFSET   4.646930   0.000000   0.000000
                                    CHANNELS 3 Zrotation Xrotation Yrotation
                                    JOINT LeftFinger32
                                    {
                                        OFFSET   2.323470   0.000000   0.000000
                                        CHANNELS 3 Zrotation Xrotation Yrotation
                                        End Site
                                        {
                                            OFFSET   2.273050   0.000000   0.000000
                                        }
                                    }
                                }
                            }
                            JOINT LeftFinger4
                            {
                                OFFSET   7.435090   0.000000  -3.252850
                                CHANNELS 3 Zrotation Xrotation Yrotation
                                JOINT LeftFinger41
                                {
                                    OFFSET   3.717550   0.000000   0.000000
                                    CHANNELS 3 Zrotation Xrotation Yrotation
                                    JOINT LeftFinger42
                                    {
                                        OFFSET   1.858770   0.000000   0.000000
                                        CHANNELS 3 Zrotation Xrotation Yrotation
                                        End Site
                                        {
                                            OFFSET   1.818440   0.000000   0.000000
                                        }
                                    }
                                }
                            }
                        }
                    }
                }
            }
            JOINT RightCollar
            {
                OFFSET  -3.911900  19.017000  -0.467063
                CHANNELS 3 Zrotation Xrotation Yrotation
                JOINT RightShoulder
                {
                    OFFSET -10.383700   0.000023   0.000000
                    CHANNELS 3 Zrotation Xrotation Yrotation
                    JOINT RightElbow
                    {
                        OFFSET -26.662100   0.001246   0.001011
                        CHANNELS 3 Zrotation Xrotation Yrotation
                        JOINT RightWrist
                        {
                            OFFSET -28.869000  -0.000026  -0.000078
                            CHANNELS 3 Zrotation Xrotation Yrotation
                            JOINT RightFinger0
                            {
                                OFFSET  -2.044660  -2.323490   3.252850
                                CHANNELS 3 Zrotation Xrotation Yrotation
                                JOINT RightFinger01
                                {
                                    OFFSET  -3.088130   0.000000   0.000000
                                    CHANNELS 3 Zrotation Xrotation Yrotation
                                    JOINT RightFinger02
                                    {
                                        OFFSET  -2.639460   0.000000   0.000000
                                        CHANNELS 3 Zrotation Xrotation Yrotation
                                        End Site
                                        {
                                            OFFSET  -2.582190   0.000000   0.000000
                                        }
                                    }
                                }
                            }
                            JOINT RightFinger1
                            {
                                OFFSET  -8.364480   0.000000   3.252850
                                CHANNELS 3 Zrotation Xrotation Yrotation
                                JOINT RightFinger11
                                {
                                    OFFSET  -4.646920   0.000000   0.000000
                                    CHANNELS 3 Zrotation Xrotation Yrotation
                                    JOINT RightFinger12
                                    {
                                        OFFSET  -2.323470   0.000000   0.000000
                                        CHANNELS 3 Zrotation Xrotation Yrotation
                                        End Site
                                        {
                                            OFFSET  -2.273050   0.000000   0.000000
                                        }
                                    }
                                }
                            }
                            JOINT RightFinger2
                            {
                                OFFSET  -8.364480   0.000000   1.078090
                                CHANNELS 3 Zrotation Xrotation Yrotation
                                JOINT RightFinger21
                                {
                                    OFFSET  -5.111620   0.000000   0.000000
                                    CHANNELS 3 Zrotation Xrotation Yrotation
                                    JOINT RightFinger22
                                    {
                                        OFFSET  -2.788160   0.000000   0.000000
                                        CHANNELS 3 Zrotation Xrotation Yrotation
                                        End Site
                                        {
                                            OFFSET  -2.727660   0.000000   0.000000
                                        }
                                    }
                                }
                            }
                            JOINT RightFinger3
                            {
                                OFFSET  -7.899780   0.000000  -1.078090
                                CHANNELS 3 Zrotation Xrotation Yrotation
                                JOINT RightFinger31
                                {
                                    OFFSET  -4.646930   0.000000   0.000000
                                    CHANNELS 3 Zrotation Xrotation Yrotation
                                    JOINT RightFinger32
                                    {
                                        OFFSET  -2.323470   0.000000   0.000000
                                        CHANNELS 3 Zrotation Xrotation Yrotation
                                        End Site
                                        {
                                            OFFSET  -2.273050   0.000000   0.000000
                                        }
                                    }
                                }
                            }
                            JOINT RightFinger4
                            {
                                OFFSET  -7.435090   0.000000  -3.252850
                                CHANNELS 3 Zrotation Xrotation Yrotation
                                JOINT RightFinger41
                                {
                                    OFFSET  -3.717550   0.000000   0.000000
                                    CHANNELS 3 Zrotation Xrotation Yrotation
                                    JOINT RightFinger42
                                    {
                                        OFFSET  -1.858760   0.000000   0.000000
                                        CHANNELS 3 Zrotation Xrotation Yrotation
                                        End Site
                                        {
                                            OFFSET  -1.818440   0.000000   0.000000
                                        }
                                    }
                                }
                            }
                        }
                    }
                }
            }
        }
    }
    JOINT LeftHip
    {
        OFFSET   9.783010   0.000000   0.000000
        CHANNELS 3 Zrotation Xrotation Yrotation
        JOINT LeftKnee
        {
            OFFSET   0.000073 -41.789100   0.001749
            CHANNELS 3 Zrotation Xrotation Yrotation
            JOINT LeftAnkle
            {
                OFFSET   0.000111 -41.133200  -0.000179
                CHANNELS 3 Zrotation Xrotation Yrotation
                JOINT LeftToe
                {
                    OFFSET   0.000000  -6.358960  14.674500
                    CHANNELS 3 Zrotation Xrotation Yrotation
                    End Site
                    {
                        OFFSET   0.000000   0.000000   3.913200
                    }
                }
            }
        }
    }
    JOINT RightHip
    {
        OFFSET  -9.783010   0.000000   0.000000
        CHANNELS 3 Zrotation Xrotation Yrotation
        JOINT RightKnee
        {
            OFFSET   0.000424 -41.789200   0.005205
            CHANNELS 3 Zrotation Xrotation Yrotation
            JOINT RightAnkle
            {
                OFFSET   0.000000 -41.133200  -0.000155
                CHANNELS 3 Zrotation Xrotation Yrotation
                JOINT RightToe
                {
                    OFFSET   0.000000  -6.358960  14.674500
                    CHANNELS 3 Zrotation Xrotation Yrotation
                    End Site
                    {
                        OFFSET   0.000000   0.000000   3.913200
                    }
                }
            }
        }
    }
}
MOTION
Frames: 4
Frame Time:   0.016667
  1.448560  89.549700  -0.309030  -1.425540 -19.088900   5.274860   0.626323   9.295980   3.391840   0.696416  18.612600   6.817010  -4.227610   4.388820   0.324099  -7.057970   8.754200   0.183519  -4.033340  -3.706000   0.221709 -74.161600  19.719400  -2.376800  -1.034300  -7.995440 -16.203900  12.617900  -4.322130  -0.823109  37.676600  33.595000 -62.880900 -34.877700  -0.005784   0.004105 -12.438800  -0.003610  -0.000680 -32.564500   5.587100  -8.668050 -26.989300   0.034181  -0.003178 -18.892500   0.022493   0.003785 -28.612900  -1.865650   3.416180 -38.374400  -0.001980  -0.003977 -25.557400  -0.027853   0.002126 -28.530300  -1.860770   3.418840 -37.145000   0.000383   0.000535 -24.738600  -0.001728  -0.001717 -33.836200  -2.168920   3.232270 -50.845200  -0.006047  -0.002747 -33.862900   0.001184  -0.003574   3.927320  -2.185740   8.957950  46.441900  14.380500  52.713500 -37.273100 -32.049200  67.088300 -17.639400  -1.315510  -4.218440 -48.398200  49.046000  74.911500  39.245200  -0.008353  -0.015619  16.009600  -0.015909  -0.015705  -4.126540  -1.039490  11.558800   0.000000   0.001262  -0.002143  -0.044012  -0.007774   0.003127  79.408700  -0.000523   0.007360  79.408600   0.007115  -0.002687  59.556500   0.004946   0.000863  85.461600  -4.970560  -0.402569  85.478700  -0.001921  -0.003262  64.109100  -0.004259   0.001063  87.062500  -9.985770  -0.506822 110.000000  -0.007521  -0.001762  80.000000   0.009421  -0.007100   2.830800  20.677300   2.725240   0.980830   0.014684  -0.528285  -1.160250  -2.389290  -2.054910  -0.000000   0.000000   0.000000   4.007040  19.837000  -3.128130  -1.145240   3.910910  -9.039510   0.479040  -5.929580  -2.520310   0.000000   0.000000  -0.000000
  1.462140  89.549100  -0.290587  -1.442970 -19.065300   5.262720   0.621355   9.297830   3.405130   0.687059  18.616100   6.844910  -4.175750   4.337670   0.316400  -6.968840   8.655650   0.060030  -4.043940  -3.707980   0.164978 -74.088200  19.694300  -2.411470  -1.001080  -7.929820 -16.284100  12.618600  -4.357480  -0.806777  37.644000  33.544400 -62.815000 -34.905400  -0.005790   0.004129 -12.452700  -0.003605  -0.000654 -32.579000   5.556440  -8.616200 -26.998300   0.039340  -0.003246 -18.898800   0.025153   0.005535 -28.609900  -1.895520   3.470820 -38.392800  -0.010428   0.014605 -25.569700  -0.046766   0.014579 -28.528000  -1.890550   3.473520 -37.157700   0.000410   0.000512 -24.747100  -0.001790  -0.001722 -33.853500  -2.205160   3.282940 -50.875000  -0.005989  -0.002771 -33.882800   0.001182  -0.003525   3.949570  -2.187790   8.943620  46.680300  14.278400  52.392900 -37.541800 -31.331600  66.972100 -20.990800  -0.661526  -1.035630 -48.974400  49.086300  76.178200  38.470600  -0.001247  -0.002457  15.191300  -0.003980  -0.005938  -4.054440  -1.152470  14.508900   0.000000   0.001314  -0.002217  -0.022828  -0.009818   0.003195  79.408600  -0.000754   0.004929  79.408500   0.004873  -0.002750  59.556400   0.004897   0.000984  85.481100  -4.971200  -0.402296  85.498100  -0.008639  -0.003526  64.123600  -0.004728   0.004892  87.113400  -9.985300  -0.502290 110.000000  -0.007522  -0.001734  80.000000   0.009615  -0.007334   2.839560  20.680500   2.737890   0.974511   0.001181  -0.527726  -1.160630  -2.399440  -2.053680   0.000000   0.000000   0.000000   4.003120  19.820200  -3.120520  -1.138500   3.915680  -9.039030   0.486535  -5.932480  -2.511630  -0.000000   0.000000  -0.000000
  1.476830  89.548500  -0.268034  -1.448310 -19.034400   5.267860   0.612196   9.302390   3.403280   0.671016  18.624700   6.841750  -4.127190   4.266160   0.307827  -6.882960   8.515880  -0.039995  -4.059270  -3.701970   0.140463 -74.004300  19.643500  -2.464860  -0.976776  -7.870110 -16.356700  12.623900  -4.402010  -0.778280  37.651600  33.550200 -62.776400 -34.930500  -0.005809   0.004160 -12.465200  -0.003601  -0.000631 -32.590100   5.512940  -8.546860 -27.000600   0.030872  -0.003161 -18.900400   0.019859   0.007215 -28.605700  -1.936540   3.546060 -38.394900  -0.014707   0.070783 -25.571000  -0.061539   0.045175 -28.523400  -1.931430   3.548840 -37.152400   0.000438   0.000486 -24.743600  -0.001854  -0.001727 -33.847400  -2.252800   3.354180 -50.870800  -0.005930  -0.002797 -33.880000   0.001180  -0.003476   3.979730  -2.156380   8.937060  46.993000  14.247200  51.960600 -37.935200 -30.705200  67.210400 -24.409800  -1.359140   2.530200 -48.518500  48.889600  77.533200  38.494000  -0.001233   0.000639  15.042500   0.000524  -0.000670  -2.674900  -0.821652  16.423600   0.042230  -0.004023  -0.002270   0.025795  -0.012118   0.003261  79.565100  -0.000984  -0.001226  79.565000  -0.001040  -0.002819  59.673800   0.004860   0.001246  85.395300  -4.971750  -0.412935  85.412600  -0.012722  -0.003714  64.059500  -0.005553   0.008515  87.121200  -9.984750  -0.503486 110.000000  -0.007514  -0.001694  80.000000   0.009809  -0.007560   2.845330  20.646600   2.751170   0.965563   0.039551  -0.534235  -1.161070  -2.432720  -2.063540  -0.000000   0.000000   0.000000   3.995520  19.804000  -3.113890  -1.132140   3.907100  -9.045140   0.491627  -5.933210  -2.512790  -0.000000   0.000000   0.000000
  1.491980  89.547800  -0.242213  -1.449400 -18.997900   5.276110   0.602554   9.307400   3.390070   0.650682  18.634100   6.817580  -4.101020   4.185620   0.299878  -6.836840   8.356970  -0.088360  -4.076030  -3.691250   0.135086 -73.927800  19.585900  -2.522030  -0.960585  -7.830810 -16.413200  12.630100  -4.439110  -0.740530  37.651600  33.578600 -62.740000 -34.956700  -0.005826   0.004189 -12.478300  -0.003597  -0.000608 -32.601600   5.468310  -8.474600 -27.005700   0.017296  -0.002567 -18.904000   0.011008   0.008772 -28.601900  -1.979780   3.625340 -38.396900  -0.016440   0.129831 -25.572300  -0.068954   0.077715 -28.519000  -1.974520   3.628210 -37.147200   0.000467   0.000457 -24.740100  -0.001919  -0.001732 -33.839400  -2.302550   3.429570 -50.862400  -0.005870  -0.002824 -33.874300   0.001176  -0.003427   4.012760  -2.105230   8.935800  47.339900  14.299000  51.509000 -38.429700 -30.173300  67.616100 -27.619400  -2.529440   6.468050 -47.769700  48.815700  78.920500  38.567000  -0.001231   0.001081  15.021300   0.002907   0.003274  -0.665551  -0.298347  17.861600   0.203054  -0.011510  -0.002292   0.142129  -0.013461   0.003322  79.721600  -0.001213  -0.005664  79.721500  -0.005322  -0.002886  59.791100   0.004827   0.001625  85.101900  -4.972150  -0.442903  85.120400  -0.016100  -0.003800  63.840400  -0.006410   0.011786  87.120900  -9.983570  -0.511861 110.000000  -0.007503  -0.001653  79.999900   0.009999  -0.007785   2.849410  20.597600   2.766830   0.954067   0.077921  -0.545764  -1.161070  -2.457510  -2.080290   0.000000   0.000000   0.000000   3.984000  19.787600  -3.103790  -1.126110   3.889860  -9.054780   0.495399  -5.933430  -2.517990   0.000000   0.000000  -0.000000
